<?xml version="1.0" encoding="UTF-8"?>
<svg version="1.1" xmlns="http://www.w3.org/2000/svg" width="1024" height="1024">
<path d="M0 0 C337.92 0 675.84 0 1024 0 C1024 337.92 1024 675.84 1024 1024 C686.08 1024 348.16 1024 0 1024 C0 686.08 0 348.16 0 0 Z " fill="#010101" transform="translate(0,0)"/>
<path d="M0 0 C0.35602295 1.0430127 0.7120459 2.08602539 1.07885742 3.16064453 C2.46591905 7.22409258 3.85314685 11.28748389 5.24041748 15.3508606 C5.87249586 17.20230806 6.50453516 19.05376887 7.13653564 20.90524292 C10.60014966 31.0518939 14.06589321 41.19779683 17.54296875 51.33984375 C20.70295207 60.5572942 23.85603138 69.77707446 27 79 C27.22467957 79.65859009 27.44935913 80.31718018 27.68084717 80.99572754 C29.06581764 85.05705813 30.44194945 89.1212827 31.8125 93.1875 C32.31015869 94.64845093 32.31015869 94.64845093 32.81787109 96.13891602 C33.11129395 97.01475342 33.4047168 97.89059082 33.70703125 98.79296875 C33.9594458 99.5408667 34.21186035 100.28876465 34.47192383 101.05932617 C35 103 35 103 35 106 C27.72746691 104.5591436 20.9137634 102.36620826 13.9375 99.875 C12.88111328 99.50246094 11.82472656 99.12992187 10.73632812 98.74609375 C8.15587683 97.83534623 5.57719856 96.91990295 3 96 C2.6596875 97.17755859 2.6596875 97.17755859 2.3125 98.37890625 C-10.08267366 132.57630501 -38.47743404 166.04677139 -67 188 C-67.88429688 188.70125 -68.76859375 189.4025 -69.6796875 190.125 C-105.37475087 217.81092173 -147.55408317 233.2036847 -192.75 233.25 C-193.52290375 233.25133942 -194.2958075 233.25267883 -195.09213257 233.25405884 C-207.92752459 233.24924903 -220.37175933 232.44100479 -233 230 C-233.74652832 229.85594727 -234.49305664 229.71189453 -235.26220703 229.56347656 C-239.19431996 228.78639308 -243.10254656 227.93778317 -247 227 C-247 226.67 -247 226.34 -247 226 C-246.31824707 225.9906543 -245.63649414 225.98130859 -244.93408203 225.97167969 C-195.16343693 225.12459045 -150.20558551 212.65151661 -112 180 C-111.03964844 179.19433594 -110.07929688 178.38867188 -109.08984375 177.55859375 C-103.90192466 173.0762958 -99.52852439 168.25982635 -95.28515625 162.87890625 C-92.9121036 159.88926556 -90.4310816 157.01450907 -87.9375 154.125 C-82.92916446 148.11035284 -78.86674773 141.79420452 -75 135 C-74.34257813 133.86046875 -73.68515625 132.7209375 -73.0078125 131.546875 C-63.64086146 114.919569 -57.89110473 97.63240536 -54 79 C-55.36705078 78.84337891 -55.36705078 78.84337891 -56.76171875 78.68359375 C-62.20928569 77.90301818 -67.49439094 76.45113587 -72.8125 75.0625 C-73.86115234 74.79759766 -74.90980469 74.53269531 -75.99023438 74.25976562 C-76.98990234 74.00001953 -77.98957031 73.74027344 -79.01953125 73.47265625 C-79.92807861 73.23812744 -80.83662598 73.00359863 -81.77270508 72.76196289 C-84 72 -84 72 -86 70 C-80.65163736 65.07593335 -75.25525883 60.34329244 -69.47265625 55.9375 C-65.87707954 53.12011288 -62.41464311 50.1496547 -58.93823242 47.18798828 C-55.48951155 44.25284273 -52.01343182 41.35786436 -48.5 38.5 C-44.58706864 35.31440026 -40.7185427 32.08121927 -36.875 28.8125 C-29.64224993 22.66586681 -22.31103081 16.64106031 -14.97119141 10.62304688 C-13.15436813 9.1271042 -11.34670204 7.62105509 -9.54296875 6.109375 C-8.06763672 4.87960937 -8.06763672 4.87960937 -6.5625 3.625 C-5.29599609 2.56152344 -5.29599609 2.56152344 -4.00390625 1.4765625 C-2 0 -2 0 0 0 Z " fill="#BD37EB" transform="translate(592,298)"/>
<path d="M0 0 C10.02375 -0.12375 10.02375 -0.12375 20.25 -0.25 C23.3751709 -0.30462402 23.3751709 -0.30462402 26.56347656 -0.36035156 C40.17120021 -0.49939059 52.25637958 0.75151563 63 10 C69.5478331 16.9286914 73.6180661 25.43573852 74 35 C74.0515625 36.05316406 74.103125 37.10632813 74.15625 38.19140625 C74.48465638 50.65716523 72.54525082 63.20314112 63.875 72.6875 C55.14649424 80.89154618 44.49486665 83.32810353 32.91015625 83.1953125 C32.07190308 83.19329834 31.2336499 83.19128418 30.36999512 83.18920898 C27.26744031 83.17882081 24.1649641 83.15089875 21.0625 83.125 C14.111875 83.08375 7.16125 83.0425 0 83 C0 55.61 0 28.22 0 0 Z " fill="#FCFCFC" transform="translate(446,623)"/>
<path d="M0 0 C49.26086957 0 49.26086957 0 59.125 6.875 C63.67665719 11.43795162 65.18536785 15.45327718 65.5 21.875 C65.34611195 27.78136973 63.91723614 31.59575613 60 36 C57.1875 38.5 57.1875 38.5 55 40 C55.53109375 40.30292969 56.0621875 40.60585938 56.609375 40.91796875 C61.95723374 44.0896003 65.56540548 46.91562178 68.25 52.6875 C70.00542923 60.44064577 69.61279343 66.72482754 65.66015625 73.73828125 C59.67452767 81.89281995 51.82435223 82.73284179 42 85 C28.14 85 14.28 85 0 85 C0 56.95 0 28.9 0 0 Z " fill="#F9F9F9" transform="translate(280,622)"/>
<path d="M0 0 C4.41268341 3.17585533 7.31727036 6.75602127 10.4375 11.125 C10.91904541 11.79152588 11.40059082 12.45805176 11.89672852 13.14477539 C19.53364666 23.82254503 25.41342229 34.69525517 29.625 47.125 C29.9240625 47.99253906 30.223125 48.86007812 30.53125 49.75390625 C31.10931287 51.43438106 31.68226878 53.11662338 32.24951172 54.80078125 C32.83842751 56.52653059 33.46663341 58.23887884 34.109375 59.9453125 C45.4055191 98.689105 36.71791309 141.01842816 18.04516602 175.70214844 C0.30684556 207.66079508 -30.66863841 232.01017925 -65 244 C-69.30272557 245.20880732 -73.63881891 246.21357035 -78 247.1875 C-79.11117187 247.44724609 -80.22234375 247.70699219 -81.3671875 247.97460938 C-101.4106189 252.53743758 -124.08749407 253.50878971 -144 248 C-145.2478125 247.69707031 -146.495625 247.39414062 -147.78125 247.08203125 C-166.99219949 242.2678751 -186.38997127 234.50518196 -202 222 C-202 221.34 -202 220.68 -202 220 C-191.26690915 218.15965776 -184.27131947 218.55523307 -174.87133789 224.17211914 C-144.89124904 241.81804713 -107.70815146 242.67322968 -74.76782227 234.25488281 C-67.14428488 232.19425144 -60.05548372 229.57621465 -53 226 C-52.06285156 225.57203125 -51.12570312 225.1440625 -50.16015625 224.703125 C-33.547287 216.93153308 -17.46576109 204.29065875 -6 190 C-5.28457031 189.12085938 -4.56914063 188.24171875 -3.83203125 187.3359375 C2.3863121 179.39443876 7.31072712 170.90894279 12 162 C12.34321289 161.35812744 12.68642578 160.71625488 13.04003906 160.05493164 C15.58789545 155.15739895 17.44136746 150.18883007 19.125 144.9375 C19.37636719 144.17373047 19.62773438 143.40996094 19.88671875 142.62304688 C24.21133053 129.38882916 26.35290278 117.3985688 26.25 103.4375 C26.24689819 102.77836609 26.24379639 102.11923218 26.24060059 101.44012451 C26.11680995 78.96532253 23.32572407 58.59186917 13.1484375 38.2890625 C0 11.78654234 0 11.78654234 0 0 Z " fill="#F6F6F6" transform="translate(622,329)"/>
<path d="M0 0 C2.17622271 0.01080011 4.35163284 -0.0000061 6.52783203 -0.01269531 C13.73447299 -0.02075385 20.43902032 0.31297586 27.41455078 2.26074219 C29.09651374 2.63915876 30.78022295 3.00987254 32.46533203 3.37402344 C42.20491984 5.57281333 51.39418295 7.87195039 60.41455078 12.26074219 C58.67590387 16.01463893 57.00359128 18.05837643 53.41455078 20.26074219 C49.13276637 19.86451736 45.07293009 18.65699097 40.94750977 17.49584961 C4.48112938 7.30981311 -33.5056599 11.0978683 -66.71044922 29.51074219 C-78.12841192 36.01518644 -88.02320783 44.27803058 -97.58544922 53.26074219 C-98.17455078 53.78539062 -98.76365234 54.31003906 -99.37060547 54.85058594 C-114.14220966 68.57455862 -124.63354687 88.23711467 -130.58544922 107.26074219 C-131.08226473 108.71276379 -131.57970363 110.1645722 -132.07763672 111.61621094 C-143.28290568 145.33802792 -139.18960263 183.60621822 -123.6574707 215.22094727 C-122.64481568 217.24029143 -121.61763904 219.25133902 -120.58544922 221.26074219 C-119.92544922 222.58074219 -119.26544922 223.90074219 -118.58544922 225.26074219 C-122.87544922 225.59074219 -127.16544922 225.92074219 -131.58544922 226.26074219 C-150.02846296 186.6597533 -156.62891942 144.34361701 -141.63037109 102.34912109 C-140.63671102 99.64442451 -139.61533125 96.95182866 -138.58544922 94.26074219 C-138.27212646 93.40915527 -137.95880371 92.55756836 -137.63598633 91.68017578 C-135.36360487 85.68350084 -132.50108572 80.39019978 -129.02294922 75.01074219 C-128.49483643 74.18864258 -127.96672363 73.36654297 -127.42260742 72.51953125 C-111.38736473 47.9000551 -90.71660211 28.84634157 -64.58544922 15.26074219 C-63.71404297 14.80441406 -62.84263672 14.34808594 -61.94482422 13.87792969 C-53.89379855 9.95120244 -45.2795825 7.45484046 -36.71630859 4.89990234 C-34.91081375 4.35833663 -33.11418903 3.7873343 -31.31982422 3.20996094 C-20.93599592 0.57055688 -10.66252893 -0.06290578 0 0 Z " fill="#F5F6F5" transform="translate(507.58544921875,276.7392578125)"/>
<path d="M0 0 C7.26 0 14.52 0 22 0 C22.01458252 1.72557129 22.02916504 3.45114258 22.04418945 5.22900391 C22.09593776 10.94481006 22.16124958 16.66035473 22.23571491 22.37590981 C22.2803494 25.83961259 22.31962018 29.30319964 22.34643555 32.76708984 C22.37753763 36.75383392 22.43232449 40.74008676 22.48828125 44.7265625 C22.49467117 45.96427399 22.5010611 47.20198547 22.50764465 48.47720337 C22.57634891 56.72803105 22.57634891 56.72803105 26 64 C30.48493881 67.33718027 36.70093839 66.59442278 42 66 C45.73056494 63.91088364 47.41047499 61.89973928 49 58 C49.32567227 55.29407992 49.32567227 55.29407992 49.31884766 52.31347656 C49.33871735 51.17259583 49.35858704 50.03171509 49.37905884 48.85626221 C49.39061005 47.63010193 49.40216125 46.40394165 49.4140625 45.140625 C49.43342865 43.88111023 49.4527948 42.62159546 49.4727478 41.32391357 C49.52238414 37.9833905 49.56366277 34.64297675 49.60089111 31.30230713 C49.64097339 27.89023952 49.69204639 24.47833824 49.7421875 21.06640625 C49.8382505 14.37770207 49.92228039 7.68894146 50 1 C56.93 1 63.86 1 71 1 C71.09100804 8.33769785 71.16411821 15.6750782 71.20724869 23.0132246 C71.22796765 26.42203727 71.2559899 29.83043799 71.30175781 33.23901367 C71.35424748 37.1736121 71.3730748 41.10805409 71.390625 45.04296875 C71.41127014 46.24455124 71.43191528 47.44613373 71.45318604 48.68412781 C71.45577587 58.62967321 70.20151081 70.0411522 62.90625 77.50390625 C51.7502425 86.25954329 40.60348536 86.8441602 27 86 C17.89878069 84.65589001 11.23833451 80.12365288 5.625 72.9375 C1.00648767 66.34141328 -0.13098075 59.98918554 -0.11352539 51.99462891 C-0.11344986 50.83387848 -0.11337433 49.67312805 -0.11329651 48.47720337 C-0.10813522 47.23949188 -0.10297394 46.0017804 -0.09765625 44.7265625 C-0.0962413 43.44768158 -0.09482635 42.16880066 -0.09336853 40.85116577 C-0.08873022 37.46788664 -0.07976081 34.08467614 -0.06866455 30.70141602 C-0.05839515 27.24235626 -0.05385911 23.78328939 -0.04882812 20.32421875 C-0.03781609 13.5494579 -0.02056018 6.77473833 0 0 Z " fill="#FAFAF9" transform="translate(359,622)"/>
<path d="M0 0 C19.14 0 38.28 0 58 0 C58 6.27 58 12.54 58 19 C46.12 19 34.24 19 22 19 C22 23.62 22 28.24 22 33 C32.56 33 43.12 33 54 33 C54 38.61 54 44.22 54 50 C43.44 50 32.88 50 22 50 C22 55.61 22 61.22 22 67 C34.21 67 46.42 67 59 67 C59 72.94 59 78.88 59 85 C39.53 85 20.06 85 0 85 C0 56.95 0 28.9 0 0 Z " fill="#F6F6F6" transform="translate(613,622)"/>
<path d="M0 0 C1.10661987 0.00519653 1.10661987 0.00519653 2.2355957 0.01049805 C11.56876241 0.1929479 19.5155238 2.1327619 27.875 6.3125 C26.225 11.9225 24.575 17.5325 22.875 23.3125 C20.090625 22.57 20.090625 22.57 17.25 21.8125 C8.15413789 19.7393973 -2.22323342 17.99209216 -10.58203125 23.125 C-15.70923403 27.0709991 -17.85830887 32.11573766 -19.125 38.3125 C-19.95460356 46.38864069 -19.60189622 53.37258645 -15.125 60.3125 C-11.24926382 64.86649002 -8.41118594 67.05469605 -2.453125 67.7265625 C-1.0943311 67.80732997 0.26521665 67.87558496 1.625 67.9375 C5.21375 68.123125 5.21375 68.123125 8.875 68.3125 C8.875 59.7325 8.875 51.1525 8.875 42.3125 C15.805 42.3125 22.735 42.3125 29.875 42.3125 C29.875 55.5125 29.875 68.7125 29.875 82.3125 C11.45328494 87.57584716 -6.0077441 90.91735809 -23.6796875 82.02734375 C-33.49498607 76.09520202 -38.35143399 67.51660792 -41.25 56.65234375 C-44.29120383 43.26800568 -42.69508877 29.72752673 -35.80859375 17.88671875 C-27.97284695 5.90584371 -14.1225758 -0.10874757 0 0 Z " fill="#F9F9F9" transform="translate(570.125,620.6875)"/>
<path d="M0 0 C22.77 0 45.54 0 69 0 C69 6.27 69 12.54 69 19 C61.41 19 53.82 19 46 19 C46 40.78 46 62.56 46 85 C38.74 85 31.48 85 24 85 C24 63.22 24 41.44 24 19 C16.08 19 8.16 19 0 19 C0 12.73 0 6.46 0 0 Z " fill="#F4F4F4" transform="translate(676,622)"/>
<path d="M0 0 C4.29 0 8.58 0 13 0 C13 3.3 13 6.6 13 10 C14.381875 10.103125 15.76375 10.20625 17.1875 10.3125 C21.12832694 10.73517544 23.76245012 11.59794686 27 14 C26.68950274 15.43793392 26.3765224 16.8753318 26.0625 18.3125 C25.88847656 19.11300781 25.71445312 19.91351563 25.53515625 20.73828125 C25 23 25 23 24 26 C23.33355469 25.7834375 22.66710937 25.566875 21.98046875 25.34375 C15.38259508 23.35054621 6.55605721 20.72197139 0 24 C-0.65555119 26.52733235 -0.65555119 26.52733235 -1 29 C-0.34 29 0.32 29 1 29 C1 29.66 1 30.32 1 31 C1.58265625 31.14695312 2.1653125 31.29390625 2.765625 31.4453125 C12.73511592 34.17281473 23.34947594 37.77602198 29 47 C30.76864009 52.30592028 31.24130081 58.13837522 28.9765625 63.359375 C25.43780596 68.55997853 21.0050604 71.26139204 15 73 C14.01 73 13.02 73 12 73 C12 76.3 12 79.6 12 83 C8.37 83 4.74 83 1 83 C1 79.7 1 76.4 1 73 C0.030625 73.061875 -0.93875 73.12375 -1.9375 73.1875 C-6.56832617 73.19695067 -10.78803751 71.87007703 -15 70 C-15.66 69.34 -16.32 68.68 -17 68 C-16.828125 65.6875 -16.828125 65.6875 -16.25 63 C-16.06953125 62.113125 -15.8890625 61.22625 -15.703125 60.3125 C-15 58 -15 58 -13 56 C-12.01773437 56.433125 -12.01773437 56.433125 -11.015625 56.875 C-4.00574063 59.72647839 2.42178733 61.04610961 10 60 C12.5654594 57.4345406 12.54046087 55.52313332 13 52 C12.41992188 51.80664062 11.83984375 51.61328125 11.2421875 51.4140625 C9.61640456 50.87213485 7.99144606 50.32772952 6.3671875 49.78125 C4.58920679 49.19445769 2.79741655 48.64924649 1 48.125 C-5.40127565 45.72452163 -11.25365565 42.93171188 -15 37 C-17.11164208 30.66507377 -16.68739246 23.07584382 -14 17 C-10.9347641 13.33828576 -7.86209491 10.82737974 -3.0625 10.125 C-2.051875 10.08375 -1.04125 10.0425 0 10 C0 6.7 0 3.4 0 0 Z " fill="#F5F6F6" transform="translate(450,385)"/>
<path d="M0 0 C19.57727273 0 19.57727273 0 24.9609375 4.71875 C25.42757813 5.3065625 25.89421875 5.894375 26.375 6.5 C26.85710937 7.0878125 27.33921875 7.675625 27.8359375 8.28125 C30.80681037 12.6677737 30.22067205 17.61009848 30.25 22.6875 C30.270625 23.56083984 30.29125 24.43417969 30.3125 25.33398438 C30.34933759 31.49967584 29.90196905 37.62238692 25.68920898 42.52563477 C17.94147265 49.48738712 10.37131637 48 0 48 C0 32.16 0 16.32 0 0 Z " fill="#070707" transform="translate(467,641)"/>
<path d="M0 0 C5.506875 -0.12375 5.506875 -0.12375 11.125 -0.25 C12.2711377 -0.28641602 13.41727539 -0.32283203 14.59814453 -0.36035156 C20.72617886 -0.42697231 24.39781897 -0.19477484 29 4 C31.28219901 7.42329851 31.29741163 8.84137668 31.3125 12.875 C31.32925781 13.90367187 31.34601562 14.93234375 31.36328125 15.9921875 C30.94300015 19.47193422 30.18541704 21.26703839 28 24 C25.3125 25.3125 25.3125 25.3125 23 26 C23.29769287 26.46897705 23.59538574 26.9379541 23.90209961 27.42114258 C25.2505383 29.5495218 26.59406226 31.68096099 27.9375 33.8125 C28.40607422 34.55048828 28.87464844 35.28847656 29.35742188 36.04882812 C29.80537109 36.76103516 30.25332031 37.47324219 30.71484375 38.20703125 C31.12855225 38.8616333 31.54226074 39.51623535 31.96850586 40.19067383 C33 42 33 42 34 45 C30.83984375 45.4609375 30.83984375 45.4609375 27 45 C24.65639066 42.8746643 23.16579424 40.33256623 21.5625 37.625 C20.89444336 36.57699219 20.89444336 36.57699219 20.21289062 35.5078125 C17 30.37508401 17 30.37508401 17 28 C13.7 28 10.4 28 7 28 C7 33.61 7 39.22 7 45 C4.69 45 2.38 45 0 45 C0 30.15 0 15.3 0 0 Z " fill="#C2B5D1" transform="translate(498,726)"/>
<path d="M0 0 C22 0 22 0 28 4 C31.16327538 7.69048795 31.51229912 11.07542265 31.36328125 15.78125 C30.65015301 20.13669988 28.02544072 22.97455928 25 26 C24.01 26 23.02 26 22 26 C22.33322266 26.50450684 22.66644531 27.00901367 23.00976562 27.52880859 C24.51124121 29.80779654 26.00568792 32.0913093 27.5 34.375 C28.02464844 35.1690625 28.54929687 35.963125 29.08984375 36.78125 C29.58613281 37.54179688 30.08242188 38.30234375 30.59375 39.0859375 C31.05458984 39.7876709 31.51542969 40.4894043 31.99023438 41.21240234 C33 43 33 43 33 45 C29.80078125 45.49609375 29.80078125 45.49609375 26 45 C23.86079252 42.65558906 22.59915658 39.88701406 21.1875 37.0625 C18.20618507 31.33353133 18.20618507 31.33353133 13.13671875 27.71484375 C10.10198893 27.39065645 10.10198893 27.39065645 6 28 C6 33.61 6 39.22 6 45 C4.02 45 2.04 45 0 45 C0 30.15 0 15.3 0 0 Z " fill="#D7D2E0" transform="translate(703,726)"/>
<path d="M0 0 C2.64 0 5.28 0 8 0 C10.42583426 6.0853477 12.84637105 12.17278247 15.26318359 18.26171875 C16.08649939 20.33414731 16.91104029 22.40608961 17.73681641 24.47753906 C18.92149823 27.44991003 20.1018065 30.42398475 21.28125 33.3984375 C21.65310425 34.32868744 22.0249585 35.25893738 22.40808105 36.21737671 C22.74843384 37.07811798 23.08878662 37.93885925 23.43945312 38.82568359 C23.7414563 39.58513275 24.04345947 40.34458191 24.35461426 41.12704468 C25 43 25 43 25 45 C22.69 45 20.38 45 18 45 C17.49384702 43.73160474 16.99530901 42.46016898 16.5 41.1875 C16.2215625 40.47980469 15.943125 39.77210938 15.65625 39.04296875 C15 37 15 37 15 34 C7.74 34 0.48 34 -7 34 C-7.99 37.63 -8.98 41.26 -10 45 C-12.31 45 -14.62 45 -17 45 C-14.5293421 35.72149699 -10.92390077 26.90307842 -7.375 18 C-6.77047569 16.47279777 -6.16630633 14.94545499 -5.5625 13.41796875 C-4.98729131 11.96602214 -4.41178165 10.51419471 -3.8359375 9.0625 C-3.56615082 8.3823584 -3.29636414 7.7022168 -3.0184021 7.00146484 C-1.11908806 2.23817613 -1.11908806 2.23817613 0 0 Z " fill="#CEC3DB" transform="translate(552,726)"/>
<path d="M0 0 C0.66 0 1.32 0 2 0 C2.51046875 1.17755859 2.51046875 1.17755859 3.03125 2.37890625 C8.05320028 13.26425062 13.78827324 18.82155554 25 23 C25 23.66 25 24.32 25 25 C24.21496094 25.3403125 23.42992187 25.680625 22.62109375 26.03125 C11.73574938 31.05320028 6.17844446 36.78827324 2 48 C1.34 48 0.68 48 0 48 C-0.3403125 47.21496094 -0.680625 46.42992187 -1.03125 45.62109375 C-6.05320028 34.73574938 -11.78827324 29.17844446 -23 25 C-23 24.34 -23 23.68 -23 23 C-22.21496094 22.6596875 -21.42992187 22.319375 -20.62109375 21.96875 C-9.73574938 16.94679972 -4.17844446 11.21172676 0 0 Z " fill="#7D7D7D" transform="translate(967,944)"/>
<path d="M0 0 C1.98 0 3.96 0 6 0 C6 6.93 6 13.86 6 21 C6.66 21 7.32 21 8 21 C8.25885986 20.42024414 8.51771973 19.84048828 8.78442383 19.24316406 C11.00638086 15.14287461 14.44508165 12.05966418 17.6875 8.75 C18.73067383 7.63238281 18.73067383 7.63238281 19.79492188 6.4921875 C24.94056213 1.24565234 24.94056213 1.24565234 28.08056641 0.51757812 C30.01953125 0.515625 30.01953125 0.515625 33 1 C28.37338295 7.73304432 22.86878323 13.33998772 17 19 C18.32310762 21.80956665 19.80826291 24.23909824 21.6796875 26.71484375 C22.19660156 27.40126953 22.71351563 28.08769531 23.24609375 28.79492188 C23.78363281 29.50197266 24.32117188 30.20902344 24.875 30.9375 C25.66970703 31.99227539 25.66970703 31.99227539 26.48046875 33.06835938 C28.7340517 36.05170057 30.99831365 38.99796256 33.3828125 41.87890625 C35 44 35 44 35 46 C31.8828125 46.44921875 31.8828125 46.44921875 28 46 C25.49390271 43.95181994 23.73862752 41.44163332 21.875 38.8125 C20.87525799 37.46271913 19.87269577 36.11502209 18.8671875 34.76953125 C18.39120117 34.12580566 17.91521484 33.48208008 17.42480469 32.81884766 C15.46697859 30.31956657 13.30769198 28.17666918 11 26 C7.71439366 28.49706082 7.04194945 29.73216888 6.390625 33.890625 C6.32460767 35.34300623 6.2782503 36.79639364 6.25 38.25 C6.22035156 38.99507812 6.19070313 39.74015625 6.16015625 40.5078125 C6.0897657 42.33796672 6.04258168 44.16898769 6 46 C4.02 46 2.04 46 0 46 C0 30.82 0 15.64 0 0 Z " fill="#DED4E0" transform="translate(623,725)"/>
<path d="M0 0 C9.24 0 18.48 0 28 0 C28 1.98 28 3.96 28 6 C20.74 6 13.48 6 6 6 C6 10.62 6 15.24 6 20 C12.6 20 19.2 20 26 20 C26 21.65 26 23.3 26 25 C19.4 25 12.8 25 6 25 C6 29.95 6 34.9 6 40 C13.59 40 21.18 40 29 40 C29 41.98 29 43.96 29 46 C19.43 46 9.86 46 0 46 C0 30.82 0 15.64 0 0 Z " fill="#D0CCDB" transform="translate(665,725)"/>
<path d="M0 0 C1.06734375 -0.01160156 1.06734375 -0.01160156 2.15625 -0.0234375 C5.92429832 -0.00937762 8.80489203 0.15321039 12 2.25 C11.67 4.23 11.34 6.21 11 8.25 C10.47148438 8.09144531 9.94296875 7.93289063 9.3984375 7.76953125 C3.08525287 6.40201732 -3.71481079 6.22560483 -9.625 8.875 C-13.71278682 12.96278682 -15.16420623 16.39843593 -15.375 22.125 C-15.15868861 28.36981585 -14.04214143 33.30747522 -9.4375 37.6875 C-3.12903185 41.73138984 3.85703044 40.46582461 11 39.25 C11.495 41.725 11.495 41.725 12 44.25 C6.38918262 47.99054492 -2.40487835 47.19569223 -9 46.25 C-14.03339511 44.13212337 -16.92566718 40.65306989 -20 36.25 C-23.01972883 28.78014448 -23.33828177 19.51871308 -20.9375 11.8125 C-18.74436989 6.87273551 -14.65586916 4.02057944 -10.27734375 1.1015625 C-6.89644352 -0.16265062 -3.55847192 -0.03867904 0 0 Z " fill="#CFC4DD" transform="translate(603,724.75)"/>
<path d="M0 0 C3.20975922 -0.1354964 6.41375629 -0.23434038 9.625 -0.3125 C10.98044922 -0.3753418 10.98044922 -0.3753418 12.36328125 -0.43945312 C16.78578343 -0.52015572 20.02285802 -0.51169709 23.609375 2.26953125 C26.78752727 5.89947968 26.78752727 5.89947968 26.625 9 C26.31527198 12.99624691 24.94317853 15.2250031 22 18 C19.17588235 18.94137255 17.47081968 19.11725382 14.55078125 19.09765625 C13.78677002 19.09515869 13.02275879 19.09266113 12.2355957 19.09008789 C11.27097412 19.08098389 10.30635254 19.07187988 9.3125 19.0625 C4.7028125 19.0315625 4.7028125 19.0315625 0 19 C0 12.73 0 6.46 0 0 Z " fill="#0A0B0C" transform="translate(301,671)"/>
<path d="M0 0 C11.22 0 22.44 0 34 0 C34 1.65 34 3.3 34 5 C29.38 5 24.76 5 20 5 C20 18.2 20 31.4 20 45 C18.02 45 16.04 45 14 45 C14 31.8 14 18.6 14 5 C9.38 5 4.76 5 0 5 C0 3.35 0 1.7 0 0 Z " fill="#C7B8DE" transform="translate(457,726)"/>
<path d="M0 0 C3.8053125 -0.12375 3.8053125 -0.12375 7.6875 -0.25 C8.87218872 -0.30462402 8.87218872 -0.30462402 10.08081055 -0.36035156 C13.82586065 -0.41906774 15.6745571 -0.19253951 18.984375 1.765625 C21.10271887 4.11386665 21.66526389 4.90499341 21.5625 8 C21.3732302 11.07993579 21.08113612 11.89452304 19.125 14.4375 C15.21967857 17.30905987 12.06039405 17.11826675 7.375 17.0625 C4.94125 17.041875 2.5075 17.02125 0 17 C0 11.39 0 5.78 0 0 Z " fill="#050505" transform="translate(302,639)"/>
<path d="M0 0 C1.98 0 3.96 0 6 0 C6 6.93 6 13.86 6 21 C6.66 21 7.32 21 8 21 C8.33 20.01 8.66 19.02 9 18 C9.33333333 19.33333333 9.66666667 20.66666667 10 22 C10.268125 22.66 10.53625 23.32 10.8125 24 C10.874375 24.66 10.93625 25.32 11 26 C10.35933594 26.53109375 9.71867188 27.0621875 9.05859375 27.609375 C6.20718573 30.92068754 6.33124053 34.06980527 6.25 38.25 C6.22035156 38.99507812 6.19070313 39.74015625 6.16015625 40.5078125 C6.0897657 42.33796672 6.04258168 44.16898769 6 46 C4.02 46 2.04 46 0 46 C0 30.82 0 15.64 0 0 Z " fill="#D0C6DD" transform="translate(623,725)"/>
<path d="M0 0 C12.19509695 -0.49273119 12.19509695 -0.49273119 15.890625 1.76953125 C18.41278484 4.43648175 18.55920299 6.27910366 18.56640625 9.90234375 C17.70241975 13.10207307 16.41534703 14.73683154 14 17 C9.25427262 17.67105874 4.81611726 17.22296839 0 17 C0 11.39 0 5.78 0 0 Z " fill="#030303" transform="translate(709,731)"/>
<path d="M0 0 C12.02463194 -0.60730464 12.02463194 -0.60730464 16.3125 2.0625 C18.45675792 5.79509713 18.75714464 7.75999003 18 12 C16.3125 14.9375 16.3125 14.9375 13 17 C8.57771908 17.41760038 4.46093817 17.22529991 0 17 C0 11.39 0 5.78 0 0 Z " fill="#050504" transform="translate(505,731)"/>
<path d="M0 0 C2.65073746 1.32536873 2.72666671 2.43259841 3.7265625 5.18359375 C4.0359375 6.02857422 4.3453125 6.87355469 4.6640625 7.74414062 C4.98117187 8.63294922 5.29828125 9.52175781 5.625 10.4375 C5.94984375 11.32244141 6.2746875 12.20738281 6.609375 13.11914062 C9 19.71344866 9 19.71344866 9 22 C3.72 22 -1.56 22 -7 22 C-5.56006454 14.27670981 -2.94467554 7.2717751 0 0 Z " fill="#0C0C0C" transform="translate(555,733)"/>
<path d="M0 0 C2.58484592 0.9804588 3.94843031 1.93922143 5.75 4.0625 C7.47819041 8.12374745 7.71239902 11.64900386 7 16 C5.26016146 19.18970398 3.55304507 21.44695493 1 24 C-1.32275177 24.40047444 -3.65739357 24.7397104 -6 25 C-6.33 24.01 -6.66 23.02 -7 22 C-10.63 21.67 -14.26 21.34 -18 21 C-18 20.67 -18 20.34 -18 20 C-17.02417969 19.97421875 -16.04835938 19.9484375 -15.04296875 19.921875 C-13.77066406 19.86515625 -12.49835937 19.8084375 -11.1875 19.75 C-9.92292969 19.70359375 -8.65835938 19.6571875 -7.35546875 19.609375 C-3.98521992 19.30756783 -3.98521992 19.30756783 -2.06640625 17.2109375 C-0.33740835 13.62627519 -0.74497229 10.95292954 -1 7 C-1.33 6.34 -1.66 5.68 -2 5 C-1.34 5 -0.68 5 0 5 C-0.185625 4.360625 -0.37125 3.72125 -0.5625 3.0625 C-0.706875 2.381875 -0.85125 1.70125 -1 1 C-0.67 0.67 -0.34 0.34 0 0 Z " fill="#D1CBDA" transform="translate(727,728)"/>
<path d="M0 0 C0.66 0 1.32 0 2 0 C3.26513672 1.3894043 3.26513672 1.3894043 4.6796875 3.32421875 C5.19660156 4.02353516 5.71351563 4.72285156 6.24609375 5.44335938 C6.78363281 6.18392578 7.32117188 6.92449219 7.875 7.6875 C8.93420668 9.12941274 9.99408816 10.57083007 11.0546875 12.01171875 C11.55709961 12.69927246 12.05951172 13.38682617 12.57714844 14.09521484 C13.79900753 15.73092944 15.08519304 17.31824269 16.3828125 18.89453125 C18 21 18 21 18 23 C14.89453125 23.453125 14.89453125 23.453125 11 23 C8.42905492 20.93482692 6.61248774 18.41007246 4.6875 15.75 C4.16349609 15.06808594 3.63949219 14.38617187 3.09960938 13.68359375 C0.72987393 10.55833446 -1.31634505 7.55247766 -3 4 C-1.625 2 -1.625 2 0 0 Z " fill="#D1CBDE" transform="translate(640,748)"/>
<path d="M0 0 C0.66 0 1.32 0 2 0 C3.44963959 1.90374355 4.81184323 3.87467159 6.125 5.875 C6.84945312 6.96554687 7.57390625 8.05609375 8.3203125 9.1796875 C10 12 10 12 10 14 C6.8125 14.4375 6.8125 14.4375 3 14 C0.6222022 12.01370402 -0.82263059 9.85769274 -2 7 C-1.80769231 1.80769231 -1.80769231 1.80769231 0 0 Z " fill="#C9BEDB" transform="translate(522,757)"/>
<path d="M0 0 C7.26 0 14.52 0 22 0 C22 1.32 22 2.64 22 4 C13.75 4 5.5 4 -3 4 C-3 3.67 -3 3.34 -3 3 C1.455 2.505 1.455 2.505 6 2 C3.03 1.505 3.03 1.505 0 1 C0 0.67 0 0.34 0 0 Z " fill="#DDDEF0" transform="translate(671,766)"/>
<path d="M0 0 C7.26 0 14.52 0 22 0 C21.67 0.66 21.34 1.32 21 2 C21.99 2.99 22.98 3.98 24 5 C15.81911794 4.4533512 7.98214061 2.82876132 0 1 C0 0.67 0 0.34 0 0 Z " fill="#8512CD" transform="translate(345,524)"/>
<path d="M0 0 C0 0.66 0 1.32 0 2 C-23.21359223 8 -23.21359223 8 -30 8 C-30 7.34 -30 6.68 -30 6 C-29.43079834 5.88930176 -28.86159668 5.77860352 -28.27514648 5.66455078 C-25.66197597 5.15449556 -23.04974335 4.63978171 -20.4375 4.125 C-19.54224609 3.95097656 -18.64699219 3.77695312 -17.72460938 3.59765625 C-13.78061645 2.81752578 -9.8896154 2.01713664 -6.03515625 0.8671875 C-3 0 -3 0 0 0 Z " fill="#8F13DF" transform="translate(416,515)"/>
<path d="M0 0 C0.99 0.33 1.98 0.66 3 1 C2.67 2.98 2.34 4.96 2 7 C0.68 6.67 -0.64 6.34 -2 6 C-1.125 1.125 -1.125 1.125 0 0 Z " fill="#C9BDCD" transform="translate(612,726)"/>
<path d="M0 0 C0.66 0 1.32 0 2 0 C2 0.66 2 1.32 2 2 C2.66 2 3.32 2 4 2 C4 1.34 4 0.68 4 0 C4.66 0 5.32 0 6 0 C6.33 1.32 6.66 2.64 7 4 C4.69 4 2.38 4 0 4 C0 2.68 0 1.36 0 0 Z " fill="#BEB9CD" transform="translate(570,767)"/>
<path d="M0 0 C1.5 1.3125 1.5 1.3125 3 3 C3 3.99 3 4.98 3 6 C0.03 5.505 0.03 5.505 -3 5 C-3 3 -3 3 -1.5 1.375 C-1.005 0.92125 -0.51 0.4675 0 0 Z " fill="#B135D2" transform="translate(624,398)"/>
<path d="M0 0 C0.5775 0.495 1.155 0.99 1.75 1.5 C4.10400629 3.36980013 4.10400629 3.36980013 8 3 C8 3.66 8 4.32 8 5 C5.69 5 3.38 5 1 5 C0.34 3.68 -0.32 2.36 -1 1 C-0.67 0.67 -0.34 0.34 0 0 Z " fill="#BEBACA" transform="translate(650,766)"/>
</svg>
